<!DOCTYPE svg PUBLIC "-//W3C//DTD SVG 1.1//EN" "http://www.w3.org/Graphics/SVG/1.1/DTD/svg11.dtd">
<!-- Uploaded to: SVG Repo, www.svgrepo.com, Transformed by: SVG Repo Mixer Tools -->
<svg fill="#4eb00c" version="1.1" id="Capa_1" xmlns="http://www.w3.org/2000/svg" xmlns:xlink="http://www.w3.org/1999/xlink" width="64px" height="64px" viewBox="-190.21 -190.21 855.95 855.95" xml:space="preserve">
<g id="SVGRepo_bgCarrier" stroke-width="0" transform="translate(0,0), scale(1)">
<rect x="-190.21" y="-190.21" width="855.95" height="855.95" rx="427.975" fill="#ffffff" strokewidth="0"/>
</g>
<g id="SVGRepo_tracerCarrier" stroke-linecap="round" stroke-linejoin="round" stroke="#CCCCCC" stroke-width="53.25913600000001"> <g> <g> <path d="M237.376,436.245l0.774,0.976c210.94-85.154,292.221-282.553,199.331-367.706 c-92.899-85.154-199.331,30.953-199.331,30.953h-0.774c0,0-106.44-116.107-199.331-30.953 C-54.844,154.658,26.437,351.092,237.376,436.245z"/> </g> </g> </g>
<g id="SVGRepo_iconCarrier"> <g> <g> <path d="M237.376,436.245l0.774,0.976c210.94-85.154,292.221-282.553,199.331-367.706 c-92.899-85.154-199.331,30.953-199.331,30.953h-0.774c0,0-106.44-116.107-199.331-30.953 C-54.844,154.658,26.437,351.092,237.376,436.245z"/> </g> </g> </g>
</svg>